<svg xmlns="http://www.w3.org/2000/svg" viewBox="0 0 1600 900" preserveAspectRatio="xMidYMid slice"><defs><linearGradient id="bg" x1="0" y1="0" x2="1" y2="1"><stop stop-color="#071522"/><stop offset=".48" stop-color="#102d49"/><stop offset="1" stop-color="#071522"/></linearGradient><radialGradient id="glow" cx="75%" cy="28%" r="55%"><stop stop-color="#d1ad69" stop-opacity=".2"/><stop offset="1" stop-color="#d1ad69" stop-opacity="0"/></radialGradient></defs><rect width="1600" height="900" fill="url(#bg)"/><rect width="1600" height="900" fill="url(#glow)"/><g fill="none" stroke="#d4b16b" stroke-opacity=".18"><path d="M0 680C260 470 430 780 710 610s400-250 890-110"/><path d="M0 750C250 560 470 820 760 660s460-240 840-90"/><path d="M0 610C220 410 420 700 690 530s430-245 910-100"/></g><g opacity=".18" fill="#fff"><rect x="990" y="220" width="120" height="360"/><rect x="1125" y="130" width="170" height="450"/><rect x="1310" y="275" width="100" height="305"/><rect x="1425" y="200" width="145" height="380"/></g><g stroke="#fff" stroke-opacity=".11"><path d="M960 580h640M960 530h640M960 480h640M960 430h640M960 380h640M960 330h640M960 280h640"/><path d="M1040 130v450M1125 130v450M1210 130v450M1295 130v450M1380 130v450M1465 130v450M1550 130v450"/></g></svg>